<svg width="256" height="256" viewBox="0 0 256 256" fill="none" xmlns="http://www.w3.org/2000/svg">
  <rect x="20" y="20" width="216" height="216" rx="62" fill="url(#bg)" stroke="url(#stroke)" stroke-width="3"/>
  <g filter="url(#glow)">
    <path d="M74 154L128 72L182 106L128 184L74 154Z" fill="url(#core)" fill-opacity="0.92"/>
    <path d="M97 148L129 101L160 121L128 168L97 148Z" fill="white" fill-opacity="0.88"/>
    <circle cx="183" cy="78" r="14" fill="#9FD4FF"/>
    <path d="M171 66L195 90" stroke="#CDE8FF" stroke-width="6" stroke-linecap="round"/>
  </g>
  <path d="M56 186C91 150 114 133 152 106" stroke="url(#orbit1)" stroke-width="5" stroke-linecap="round" opacity="0.7"/>
  <path d="M98 202C135 170 163 145 202 114" stroke="url(#orbit2)" stroke-width="4" stroke-linecap="round" opacity="0.55"/>
  <defs>
    <linearGradient id="bg" x1="28" y1="24" x2="230" y2="234" gradientUnits="userSpaceOnUse">
      <stop stop-color="#111A31" stop-opacity="0.94"/>
      <stop offset="0.52" stop-color="#14213F" stop-opacity="0.84"/>
      <stop offset="1" stop-color="#0A1226" stop-opacity="0.96"/>
    </linearGradient>
    <linearGradient id="stroke" x1="24" y1="28" x2="228" y2="232" gradientUnits="userSpaceOnUse">
      <stop stop-color="#DDF0FF" stop-opacity="0.5"/>
      <stop offset="1" stop-color="#79A5FF" stop-opacity="0.35"/>
    </linearGradient>
    <linearGradient id="core" x1="74" y1="78" x2="182" y2="184" gradientUnits="userSpaceOnUse">
      <stop stop-color="#DFF1FF"/>
      <stop offset="0.55" stop-color="#7FC4FF"/>
      <stop offset="1" stop-color="#A984FF"/>
    </linearGradient>
    <linearGradient id="orbit1" x1="56" y1="186" x2="152" y2="106" gradientUnits="userSpaceOnUse">
      <stop stop-color="#5BC7FF" stop-opacity="0"/>
      <stop offset="0.5" stop-color="#83D1FF"/>
      <stop offset="1" stop-color="#DDF4FF" stop-opacity="0"/>
    </linearGradient>
    <linearGradient id="orbit2" x1="98" y1="202" x2="202" y2="114" gradientUnits="userSpaceOnUse">
      <stop stop-color="#A984FF" stop-opacity="0"/>
      <stop offset="0.5" stop-color="#9CCBFF"/>
      <stop offset="1" stop-color="#E6F3FF" stop-opacity="0"/>
    </linearGradient>
    <filter id="glow" x="40" y="40" width="176" height="176" filterUnits="userSpaceOnUse" color-interpolation-filters="sRGB">
      <feFlood flood-opacity="0" result="BackgroundImageFix"/>
      <feBlend mode="normal" in="SourceGraphic" in2="BackgroundImageFix" result="shape"/>
      <feGaussianBlur stdDeviation="8" result="effect1_foregroundBlur"/>
    </filter>
  </defs>
</svg>